<?xml version="1.0" encoding="UTF-8"?>
<svg version="1.1" xmlns="http://www.w3.org/2000/svg" width="430" height="303">
<path d="M0 0 C141.9 0 283.8 0 430 0 C430 99.99 430 199.98 430 303 C288.1 303 146.2 303 0 303 C0 203.01 0 103.02 0 0 Z " fill="#FDF8FA" transform="translate(0,0)"/>
<path d="M0 0 C1.6875 1.1875 1.6875 1.1875 3.6875 4.1875 C4.98587741 23.33856677 -7.35079291 41.30740593 -19.3125 55.1875 C-21.50152941 57.66814751 -23.70776271 60.12977192 -25.94140625 62.5703125 C-27.25244687 64.01742488 -28.55583448 65.47203833 -29.82495117 66.95605469 C-35.15492919 73.17808246 -40.97391036 78.83041059 -46.90429688 84.4765625 C-52.66563432 90.10729028 -56.7499416 94.85978699 -57.80859375 103.00390625 C-57.94182838 110.72002475 -57.94182838 110.72002475 -55.8125 118 C-53.76213373 122.35702832 -53.56465639 126.44382536 -54.3125 131.1875 C-56.43924805 136.45718971 -59.76403128 140.44648803 -63.375 144.75 C-64.54008064 146.16582946 -65.70412981 147.58250829 -66.8671875 149 C-67.4456543 149.70253906 -68.02412109 150.40507812 -68.62011719 151.12890625 C-71.10434685 154.15069282 -73.57136575 157.18333085 -76 160.25 C-76.78761719 161.23097656 -77.57523437 162.21195313 -78.38671875 163.22265625 C-80.51943295 166.5060844 -81.40403899 169.39566275 -82.3125 173.1875 C-85.32922405 183.32295701 -91.65001579 191.36425906 -100.8515625 196.64453125 C-102.71944229 197.64161074 -104.589279 198.63503187 -106.4609375 199.625 C-113.65921364 203.5692609 -120.35279455 207.25010812 -123.3125 215.1875 C-124.19497171 221.61397042 -123.29190749 226.47696898 -120.3125 232.1875 C-135.75377397 229.83589314 -150.10673843 215.985903 -159.2890625 204.08984375 C-170.06037159 188.63987724 -176.75491494 172.36313393 -175.3125 153.1875 C-173.38771241 143.92771105 -166.979508 136.26772528 -159.1875 131.125 C-154.91624241 128.2465438 -152.35843901 124.28979659 -149.3125 120.1875 C-148.06960776 118.61934021 -146.81936969 117.05697939 -145.5625 115.5 C-142.78101512 112.035249 -140.02495939 108.55224612 -137.28686523 105.05322266 C-134.96883172 102.09264934 -132.6414328 99.13950232 -130.3125 96.1875 C-129.89258789 95.65350586 -129.47267578 95.11951172 -129.04003906 94.56933594 C-127.86687965 93.08245735 -126.68363775 91.60355085 -125.5 90.125 C-124.83355469 89.28839844 -124.16710937 88.45179688 -123.48046875 87.58984375 C-117.00311633 80.41223702 -117.00311633 80.41223702 -112.83862305 79.85864258 C-109.89876257 79.8388464 -106.99713679 79.94937502 -104.0625 80.125 C-94.84140166 80.64933696 -87.18349145 80.01470757 -79.6875 74.125 C-74.54233203 67.76123962 -69.89857914 61.06220085 -65.28369141 54.31079102 C-57.00680163 42.20243285 -48.43107398 30.82308141 -38.3125 20.1875 C-37.58417969 19.383125 -36.85585937 18.57875 -36.10546875 17.75 C-28.06849843 9.16132671 -12.35808411 -4.34202955 0 0 Z " fill="#AC7D76" transform="translate(285.3125,54.8125)"/>
<path d="M0 0 C6.51655098 3.96104079 9.57676692 8.7890177 11.7421875 16.01953125 C12.1875 17.9375 12.1875 17.9375 12.1875 19.9375 C12.94933594 19.34001953 12.94933594 19.34001953 13.7265625 18.73046875 C24.69681142 10.28707492 24.69681142 10.28707492 32.1171875 10.66796875 C39.70802711 11.65621013 43.61224569 14.88114382 48.62109375 20.5859375 C51.62781183 25.09976364 51.8551378 30.63454835 51.1875 35.9375 C48.12034213 46.50626084 40.56630045 53.67132863 31.1875 58.9375 C30.011875 59.4325 28.83625 59.9275 27.625 60.4375 C19.94584142 63.78840556 13.58417959 69.1534426 10.1875 76.9375 C9.73938863 79.29314596 9.73938863 79.29314596 9.5625 81.6875 C9.48773438 82.48671875 9.41296875 83.2859375 9.3359375 84.109375 C9.28695312 84.71265625 9.23796875 85.3159375 9.1875 85.9375 C-8.23946393 77.4975354 -21.1298603 61.68499922 -27.91796875 43.6953125 C-31.39862738 32.96454834 -33.09282335 20.80956075 -28.2890625 10.234375 C-21.49156887 -0.33950399 -11.86048101 -3.30537995 0 0 Z " fill="#E8939F" transform="translate(146.8125,191.0625)"/>
<path d="M0 0 C1 1 1 1 1.3125 3.8125 C0.96572734 22.65381446 -14.91063156 41.07887451 -27.26171875 54.0859375 C-29.34710061 56.30518838 -31.34255806 58.54681155 -33.32421875 60.85546875 C-37.6591086 65.84297972 -42.41468263 70.37663003 -47.21484375 74.91210938 C-54.41291347 81.92437806 -59.8630677 90.29082601 -60.375 100.5625 C-60.29222779 106.03374325 -58.69236036 110.79792844 -56.875 115.921875 C-55.9548711 119.15875702 -55.70338364 121.65379673 -56 125 C-58 128.375 -58 128.375 -60 131 C-63.97184053 129.62649365 -66.72920828 127.82411754 -69.9375 125.125 C-70.89527344 124.32320313 -71.85304687 123.52140625 -72.83984375 122.6953125 C-76.83822534 119.2941 -80.82174725 115.87538934 -84.79980469 112.45043945 C-91.13269589 107.00502054 -97.58713897 101.71322452 -104.125 96.515625 C-105.135625 95.70609375 -106.14625 94.8965625 -107.1875 94.0625 C-108.57001953 92.96615234 -108.57001953 92.96615234 -109.98046875 91.84765625 C-110.64691406 91.23792969 -111.31335938 90.62820312 -112 90 C-112 89.34 -112 88.68 -112 88 C-112.99 88 -113.98 88 -115 88 C-114.70005309 85.20049553 -113.99883401 83.99867402 -112.12109375 81.86328125 C-107.53090796 79.12295757 -103.47910348 79.68301696 -98.25 79.9375 C-86.53666133 80.57769843 -86.53666133 80.57769843 -76.34960938 75.50439453 C-74.17242824 73.07751498 -72.02425479 70.62939104 -69.890625 68.1640625 C-68.68943482 66.78914647 -67.47226919 65.42790245 -66.234375 64.0859375 C-63.02858427 60.57689629 -60.31104535 57.04728048 -57.8125 53 C-50.70553016 41.51705322 -42.34208947 30.74476574 -33 21 C-32.14921875 20.08605469 -31.2984375 19.17210938 -30.421875 18.23046875 C-22.8418059 10.31471088 -11.94669098 -0.99555758 0 0 Z " fill="#D9A99D" transform="translate(282,60)"/>
<path d="M0 0 C3.93583201 1.36321002 6.64501193 3.12387627 9.8125 5.8125 C10.76253906 6.60785156 11.71257812 7.40320313 12.69140625 8.22265625 C13.47475342 8.88225342 13.47475342 8.88225342 14.27392578 9.55517578 C17.5740509 12.31757189 20.91330539 15.03199949 24.25 17.75 C25.24157104 18.56368042 25.24157104 18.56368042 26.25317383 19.39379883 C34.13228197 25.96104076 34.13228197 25.96104076 43 31 C43 31.66 43 32.32 43 33 C43.66 33 44.32 33 45 33 C46.66666667 34.66666667 48.33333333 36.33333333 50 38 C50.7425 38.33 51.485 38.66 52.25 39 C54 40 54 40 55 42.3125 C55 46.02659658 53.43421828 47.28758534 51 50 C50.29114106 51.31138904 49.60543548 52.63777017 49 54 C48.34 54 47.68 54 47 54 C46.938125 54.721875 46.87625 55.44375 46.8125 56.1875 C45.75543353 59.84657625 43.79449929 61.49211602 41 64 C39.515 63.505 39.515 63.505 38 63 C37.078125 60.890625 37.078125 60.890625 36.25 58.25 C34.26953234 52.97879329 32.04544053 50.44789382 27 48 C19.32236946 44.95791998 12.001291 44.95811307 4.375 48 C2.90896911 48.64956446 1.44750013 49.3101276 0 50 C-0.32871094 49.34773438 -0.65742188 48.69546875 -0.99609375 48.0234375 C-4.5601666 41.47481585 -8.13056749 37.12346216 -15 34 C-18.31295098 33.04816192 -21.57991972 32.41412246 -25 32 C-21.22357492 25.79217796 -16.81498268 20.13736143 -12.25 14.5 C-11.67096924 13.78134766 -11.09193848 13.06269531 -10.49536133 12.32226562 C-9.94517334 11.64873047 -9.39498535 10.97519531 -8.828125 10.28125 C-8.3321582 9.67345703 -7.83619141 9.06566406 -7.32519531 8.43945312 C-6 7 -6 7 -4 6 C-3.34 6.33 -2.68 6.66 -2 7 C-2.59989853 10.20681055 -3.61827629 12.09581949 -5.6875 14.6015625 C-6.22117188 15.25640625 -6.75484375 15.91125 -7.3046875 16.5859375 C-7.86414063 17.25882813 -8.42359375 17.93171875 -9 18.625 C-10.10565673 19.97013076 -11.20989252 21.31643113 -12.3125 22.6640625 C-12.80363281 23.25654785 -13.29476562 23.8490332 -13.80078125 24.45947266 C-15.08341128 26.00305189 -15.08341128 26.00305189 -16 28 C-16.66 28 -17.32 28 -18 28 C-18 28.66 -18 29.32 -18 30 C-15.69 30.33 -13.38 30.66 -11 31 C-10.94585937 30.45859375 -10.89171875 29.9171875 -10.8359375 29.359375 C-9.61435958 25.91155694 -7.18674535 23.75262815 -4.625 21.25 C-4.13 20.74339844 -3.635 20.23679688 -3.125 19.71484375 C0.61988292 16 0.61988292 16 4 16 C4.8971875 15.5978125 4.8971875 15.5978125 5.8125 15.1875 C8 15 8 15 11.125 17.4375 C12.07375 18.283125 13.0225 19.12875 14 20 C14.66 20 15.32 20 16 20 C16 19.34 16 18.68 16 18 C14.38635721 16.55334943 14.38635721 16.55334943 12.28125 15.1015625 C11.51425781 14.53953125 10.74726563 13.9775 9.95703125 13.3984375 C8.3227098 12.21881597 6.68468942 11.04430184 5.04296875 9.875 C4.27597656 9.31039062 3.50898438 8.74578125 2.71875 8.1640625 C1.65043945 7.39763428 1.65043945 7.39763428 0.56054688 6.61572266 C-1 5 -1 5 -1 1 C-0.67 0.67 -0.34 0.34 0 0 Z " fill="#ECE9E8" transform="translate(162,152)"/>
<path d="M0 0 C3.93583201 1.36321002 6.64501193 3.12387627 9.8125 5.8125 C10.76253906 6.60785156 11.71257812 7.40320313 12.69140625 8.22265625 C13.2136377 8.6623877 13.73586914 9.10211914 14.27392578 9.55517578 C17.5740509 12.31757189 20.91330539 15.03199949 24.25 17.75 C24.91104736 18.29245361 25.57209473 18.83490723 26.25317383 19.39379883 C34.13228197 25.96104076 34.13228197 25.96104076 43 31 C43 31.66 43 32.32 43 33 C43.66 33 44.32 33 45 33 C46.66666667 34.66666667 48.33333333 36.33333333 50 38 C50.7425 38.33 51.485 38.66 52.25 39 C54 40 54 40 55 42.3125 C55 46.02659658 53.43421828 47.28758534 51 50 C50.29114106 51.31138904 49.60543548 52.63777017 49 54 C48.34 54 47.68 54 47 54 C46.938125 54.721875 46.87625 55.44375 46.8125 56.1875 C45.75543353 59.84657625 43.79449929 61.49211602 41 64 C40.01 63.67 39.02 63.34 38 63 C36.8125 59.4375 36.8125 59.4375 36 56 C36.99 56.99 37.98 57.98 39 59 C39 55.82713616 38.54838588 53.68181666 36.5390625 51.18359375 C31.34645987 46.27711412 25.78646276 44.00849358 19 42 C19.85472385 37.10968128 22.73713408 34.60997932 26 31 C22.37 28.03 18.74 25.06 15 22 C15.33 20.68 15.66 19.36 16 18 C15.48501953 17.62713867 14.97003906 17.25427734 14.43945312 16.87011719 C12.11631202 15.17664193 9.80822725 13.46373947 7.5 11.75 C6.68917969 11.16347656 5.87835938 10.57695312 5.04296875 9.97265625 C3.89248047 9.11220703 3.89248047 9.11220703 2.71875 8.234375 C2.00654297 7.71069336 1.29433594 7.18701172 0.56054688 6.64746094 C-1 5 -1 5 -1 1 C-0.67 0.67 -0.34 0.34 0 0 Z " fill="#BC988F" transform="translate(162,152)"/>
<path d="M0 0 C0.99 0.495 0.99 0.495 2 1 C-0.14076124 4.51084844 -2.28536654 7.38376903 -5.265625 10.22265625 C-8.94758801 13.85577543 -12.0877063 17.74178001 -15.1875 21.875 C-15.74284424 22.60968506 -16.29818848 23.34437012 -16.87036133 24.10131836 C-25.32267835 35.34832414 -33.47610145 46.74497861 -40.70385742 58.82446289 C-45.41477783 66.60469576 -49.68645629 68.99382259 -58 72 C-58.969375 72.4125 -59.93875 72.825 -60.9375 73.25 C-68.1401428 75.01391252 -75.66079336 74.09022964 -82.90625 72.92578125 C-85.65943019 73.02337532 -86.14083624 74.07655665 -88 76 C-89.32 76 -90.64 76 -92 76 C-90.59618255 72.60744116 -89.12430931 70.92876357 -86 69 C-83.66918945 68.70703125 -83.66918945 68.70703125 -81.11328125 68.8125 C-80.17419922 68.83570313 -79.23511719 68.85890625 -78.26757812 68.8828125 C-76.31702647 68.96016418 -74.3665047 69.03827358 -72.41601562 69.1171875 C-65.79376328 69.27969676 -58.53271082 69.20133952 -53.34985352 64.50463867 C-51.17257273 62.0776932 -49.02433034 59.62947834 -46.890625 57.1640625 C-45.68943482 55.78914647 -44.47226919 54.42790245 -43.234375 53.0859375 C-40.02858427 49.57689629 -37.31104535 46.04728048 -34.8125 42 C-25.12279195 26.34404474 -13.10644179 12.86018297 0 0 Z " fill="#F5DFD5" transform="translate(259,71)"/>
<path d="M0 0 C2.89286818 1.65306753 4.89613203 3.23701315 7.0625 5.75 C6.7325 6.41 6.4025 7.07 6.0625 7.75 C5.27875 7.110625 4.495 6.47125 3.6875 5.8125 C-0.51418021 2.51117983 -3.71051551 2.28537916 -8.9375 2.75 C-14.35502774 3.66357972 -17.93513565 5.18525169 -21.375 9.5625 C-27.13858058 17.7891492 -26.87181331 27.33542879 -25.47265625 36.94140625 C-23.85728297 44.27271575 -20.77357315 50.34123109 -16.9375 56.75 C-16.6075 57.41 -16.2775 58.07 -15.9375 58.75 C-16.5975 59.74 -17.2575 60.73 -17.9375 61.75 C-27.10573574 47.95314039 -32.29001751 34.63657897 -30.9375 17.75 C-29.23548952 9.55044951 -24.68756415 4.51109497 -17.9375 -0.25 C-12.30732576 -2.12672475 -5.56578373 -2.22148418 0 0 Z " fill="#F6D9C5" transform="translate(146.9375,191.25)"/>
<path d="M0 0 C0.66 0.33 1.32 0.66 2 1 C1.71695691 8.92520655 -1.1588033 13.26010959 -6.77734375 18.73046875 C-10.95142985 22.42960413 -15.1006298 25.24741935 -20.3125 27.3125 C-28.06435078 30.54525873 -34.61615081 36.24534561 -38 44 C-38.44811137 46.35564596 -38.44811137 46.35564596 -38.625 48.75 C-38.69976562 49.54921875 -38.77453125 50.3484375 -38.8515625 51.171875 C-38.90054688 51.77515625 -38.94953125 52.3784375 -39 53 C-40.32 52.34 -41.64 51.68 -43 51 C-42.01 50.505 -42.01 50.505 -41 50 C-40.68289895 47.61234108 -40.68289895 47.61234108 -40.625 44.8125 C-40.21581348 39.67786915 -39.41170461 37.00875291 -36 33 C-35.33355469 32.17113281 -34.66710937 31.34226563 -33.98046875 30.48828125 C-29.59157338 25.247028 -26.84447801 22.44787035 -20 21 C-17.41666771 18.75041666 -17.41666771 18.75041666 -15 16 C-13.78762069 14.87742656 -12.55771658 13.77353425 -11.3125 12.6875 C-10.73113281 12.17574219 -10.14976562 11.66398438 -9.55078125 11.13671875 C-8 10 -8 10 -6 10 C-5.71125 9.236875 -5.4225 8.47375 -5.125 7.6875 C-4 5 -4 5 -2 2 C-1.34 2 -0.68 2 0 2 C0 1.34 0 0.68 0 0 Z " fill="#F4B3DD" transform="translate(195,224)"/>
<path d="M0 0 C-1.33907852 5.95146008 -4.43747114 10.08208531 -9 14 C-12.22995509 15.73488899 -15.5131027 16.89212293 -19 18 C-19.969375 18.4125 -20.93875 18.825 -21.9375 19.25 C-29.1401428 21.01391252 -36.66079336 20.09022964 -43.90625 18.92578125 C-46.65943019 19.02337532 -47.14083624 20.07655665 -49 22 C-50.32 22 -51.64 22 -53 22 C-51.59618255 18.60744116 -50.12430931 16.92876357 -47 15 C-44.66918945 14.70703125 -44.66918945 14.70703125 -42.11328125 14.8125 C-41.17419922 14.83570313 -40.23511719 14.85890625 -39.26757812 14.8828125 C-37.31702647 14.96016418 -35.3665047 15.03827358 -33.41601562 15.1171875 C-26.83582978 15.27866445 -19.55214039 15.21752238 -14.39575195 10.546875 C-13.93515381 10.03640625 -13.47455566 9.5259375 -13 9 C-4.46153846 0 -4.46153846 0 0 0 Z " fill="#F3DCD2" transform="translate(220,125)"/>
<path d="M0 0 C-14.05794627 12.70622066 -31.00841563 19.63585458 -50 20 C-53.75 19.5625 -53.75 19.5625 -56 19 C-56 18.67 -56 18.34 -56 18 C-49.565 17.505 -49.565 17.505 -43 17 C-44.18424326 15.58422523 -44.18424326 15.58422523 -47.5625 15.9375 C-49.2640625 15.9684375 -49.2640625 15.9684375 -51 16 C-50.67 15.34 -50.34 14.68 -50 14 C-47.30263554 13.67231118 -44.6449369 13.44186561 -41.9375 13.25 C-28.44212309 12.00702244 -17.14775256 7.06222266 -5.57421875 0.22265625 C-3 -1 -3 -1 0 0 Z " fill="#F1B9BB" transform="translate(251,259)"/>
<path d="M0 0 C3.93583201 1.36321002 6.64501193 3.12387627 9.8125 5.8125 C10.75480469 6.60398438 11.69710937 7.39546875 12.66796875 8.2109375 C13.1892334 8.65018555 13.71049805 9.08943359 14.24755859 9.54199219 C16.22679381 11.18868942 18.22998809 12.80294017 20.23828125 14.4140625 C20.96362061 14.99696045 21.68895996 15.5798584 22.4362793 16.18041992 C23.8826591 17.34155717 25.33071145 18.50061442 26.78051758 19.6574707 C27.4433374 20.19202881 28.10615723 20.72658691 28.7890625 21.27734375 C29.68165771 21.99265259 29.68165771 21.99265259 30.59228516 22.72241211 C32 24 32 24 33 26 C32.01 26 31.02 26 30 26 C30 26.66 30 27.32 30 28 C26.36993441 26.72947704 24.00878088 25.34938155 21.25 22.6875 C18.17237508 19.83007993 15.00868282 17.2191029 11.63671875 14.72265625 C10.86489258 14.1500708 10.09306641 13.57748535 9.29785156 12.98754883 C7.73579662 11.83765794 6.16617691 10.69796679 4.58886719 9.5690918 C3.86731445 9.03582275 3.14576172 8.50255371 2.40234375 7.953125 C1.74741943 7.48036133 1.09249512 7.00759766 0.41772461 6.52050781 C-1 5 -1 5 -1 1 C-0.67 0.67 -0.34 0.34 0 0 Z " fill="#DAD0CD" transform="translate(162,152)"/>
<path d="M0 0 C6.58928571 4.32142857 6.58928571 4.32142857 9 7 C4.25 10 4.25 10 2 10 C0.25584286 11.52069608 -1.42271892 13.11729711 -3.0625 14.75 C-3.96097656 15.63171875 -4.85945312 16.5134375 -5.78515625 17.421875 C-7.82620552 19.79769954 -8.65135327 20.95467753 -9 24 C-11.31 23.34 -13.62 22.68 -16 22 C-16 21.34 -16 20.68 -16 20 C-15.34 20 -14.68 20 -14 20 C-13.72816895 19.42024414 -13.45633789 18.84048828 -13.17626953 18.24316406 C-12.00523359 16.00998053 -10.70154419 14.11693063 -9.1796875 12.109375 C-8.64472656 11.40039062 -8.10976562 10.69140625 -7.55859375 9.9609375 C-7.00300781 9.23132813 -6.44742188 8.50171875 -5.875 7.75 C-5.31167969 7.00492188 -4.74835938 6.25984375 -4.16796875 5.4921875 C-2.78151746 3.65925189 -1.39212232 1.82862987 0 0 Z " fill="#BFB5B4" transform="translate(160,160)"/>
<path d="M0 0 C2.56564607 1.10579831 4.25958011 2.56770103 6.31640625 4.453125 C7.0228125 5.09378906 7.72921875 5.73445312 8.45703125 6.39453125 C8.988125 6.88824219 9.51921875 7.38195312 10.06640625 7.890625 C8.7070354 10.7512141 7.42120156 12.74990199 5.06640625 14.890625 C4.42703125 14.6225 3.78765625 14.354375 3.12890625 14.078125 C-0.84561636 12.53698358 -4.8824387 11.21453188 -8.93359375 9.890625 C-8.3503498 6.66521571 -7.41144577 4.9148639 -5.12109375 2.578125 C-4.61964844 2.04574219 -4.11820313 1.51335937 -3.6015625 0.96484375 C-1.93359375 -0.109375 -1.93359375 -0.109375 0 0 Z " fill="#CBC3BF" transform="translate(189.93359375,184.109375)"/>
<path d="M0 0 C0.99 0.33 1.98 0.66 3 1 C2.40010147 4.20681055 1.38172371 6.09581949 -0.6875 8.6015625 C-1.22117188 9.25640625 -1.75484375 9.91125 -2.3046875 10.5859375 C-2.86414063 11.25882813 -3.42359375 11.93171875 -4 12.625 C-5.10565673 13.97013076 -6.20989252 15.31643113 -7.3125 16.6640625 C-7.80363281 17.25654785 -8.29476562 17.8490332 -8.80078125 18.45947266 C-10.08341128 20.00305189 -10.08341128 20.00305189 -11 22 C-11.66 22 -12.32 22 -13 22 C-13 22.66 -13 23.32 -13 24 C-12.01 24 -11.02 24 -10 24 C-10 24.66 -10 25.32 -10 26 C-13.3 26 -16.6 26 -20 26 C-14.32871894 16.9259503 -7.59514428 7.59514428 0 0 Z " fill="#F6F2F0" transform="translate(157,158)"/>
<path d="M0 0 C3.08285378 1.79449698 4.77889588 4.17918464 6.83203125 7.06640625 C6.23390625 6.75703125 5.63578125 6.44765625 5.01953125 6.12890625 C1.12596291 4.23774449 -1.86808793 3.80314824 -6.16796875 4.06640625 C-6.79960937 4.41960937 -7.43125 4.7728125 -8.08203125 5.13671875 C-10.72628851 6.31524539 -11.8646255 5.93168356 -14.60546875 5.12890625 C-18.14954859 4.21072055 -20.59705443 3.91449841 -24.16796875 5.06640625 C-17.32165853 -2.56986284 -9.24393544 -3.77415116 0 0 Z M-25.16796875 5.06640625 C-24.83796875 5.72640625 -24.50796875 6.38640625 -24.16796875 7.06640625 C-24.82796875 6.73640625 -25.48796875 6.40640625 -26.16796875 6.06640625 C-25.83796875 5.73640625 -25.50796875 5.40640625 -25.16796875 5.06640625 Z " fill="#F0B9A8" transform="translate(187.16796875,203.93359375)"/>
<path d="M0 0 C1.60488281 0.01450195 1.60488281 0.01450195 3.2421875 0.02929688 C4.35335937 0.05443359 5.46453125 0.07957031 6.609375 0.10546875 C8.29933594 0.12577148 8.29933594 0.12577148 10.0234375 0.14648438 C12.80256764 0.1818123 15.58072863 0.23114355 18.359375 0.29296875 C18.029375 1.28296875 17.699375 2.27296875 17.359375 3.29296875 C18.349375 3.62296875 19.339375 3.95296875 20.359375 4.29296875 C12.98138462 6.45489151 4.93161125 5.42064958 -2.546875 4.21875 C-5.30005519 4.31634407 -5.78146124 5.3695254 -7.640625 7.29296875 C-8.960625 7.29296875 -10.280625 7.29296875 -11.640625 7.29296875 C-9.27247524 1.56994016 -6.08413398 -0.09708724 0 0 Z " fill="#EEC8BD" transform="translate(178.640625,139.70703125)"/>
<path d="M0 0 C0.66 0.33 1.32 0.66 2 1 C-8.58193105 9.3143744 -21.06274141 18 -35 18 C-35 17.34 -35 16.68 -35 16 C-34.319375 15.8040625 -33.63875 15.608125 -32.9375 15.40625 C-22.40684528 12.15743099 -12.57603177 7.3624892 -3.14453125 1.6875 C-2.10683594 1.130625 -1.06914062 0.57375 0 0 Z " fill="#F6CAD0" transform="translate(260,271)"/>
<path d="M0 0 C2.64 1.65 5.28 3.3 8 5 C6.96483052 9.14067791 5.83392052 10.90845034 3 14 C2.34 14 1.68 14 1 14 C-0.5078125 12.46875 -0.5078125 12.46875 -2.125 10.5 C-2.66382813 9.8503125 -3.20265625 9.200625 -3.7578125 8.53125 C-4.16773438 8.0259375 -4.57765625 7.520625 -5 7 C-3.61410019 3.90837736 -2.50816459 2.50816459 0 0 Z " fill="#A99895" transform="translate(200,193)"/>
<path d="M0 0 C0 0.99 0 1.98 0 3 C3.45861321 2.59310433 6.51520476 2.19832533 9.75 0.875 C12 0 12 0 15 1 C7.55702268 4.44533579 0.68182303 6.48989211 -7.4375 7.375 C-8.19401855 7.45927246 -8.95053711 7.54354492 -9.72998047 7.63037109 C-14.01589853 8.03018751 -17.75421188 7.92855588 -22 7 C-22 6.67 -22 6.34 -22 6 C-15.565 5.505 -15.565 5.505 -9 5 C-10.18424326 3.58422523 -10.18424326 3.58422523 -13.5625 3.9375 C-15.2640625 3.9684375 -15.2640625 3.9684375 -17 4 C-16.67 3.34 -16.34 2.68 -16 2 C-13.29400158 1.52402634 -10.66404596 1.15906371 -7.9375 0.875 C-6.79958008 0.74544922 -6.79958008 0.74544922 -5.63867188 0.61328125 C-3.76003014 0.40060483 -1.88011364 0.19924541 0 0 Z " fill="#F0B1C2" transform="translate(217,271)"/>
<path d="M0 0 C1.32 0.33 2.64 0.66 4 1 C3.67 2.65 3.34 4.3 3 6 C2.34 6 1.68 6 1 6 C0.938125 6.721875 0.87625 7.44375 0.8125 8.1875 C-0.24456647 11.84657625 -2.20550071 13.49211602 -5 16 C-5.99 15.67 -6.98 15.34 -8 15 C-9.1875 11.4375 -9.1875 11.4375 -10 8 C-9.01 8.99 -8.02 9.98 -7 11 C-6.6596875 9.948125 -6.6596875 9.948125 -6.3125 8.875 C-4.68343133 5.30656387 -2.59359269 2.93485489 0 0 Z " fill="#D2B5AF" transform="translate(208,200)"/>
<path d="M0 0 C2.89286818 1.65306753 4.89613203 3.23701315 7.0625 5.75 C6.7325 6.41 6.4025 7.07 6.0625 7.75 C5.27875 7.110625 4.495 6.47125 3.6875 5.8125 C-0.49905091 2.52306714 -3.72194739 2.25158542 -8.9375 2.75 C-14.47129512 4.00015969 -18.73858835 5.82198587 -22.9375 9.75 C-22.27083333 8.41666667 -21.60416667 7.08333333 -20.9375 5.75 C-20.463125 4.698125 -19.98875 3.64625 -19.5 2.5625 C-16.15154183 -3.46472471 -5.80558773 -2.3171977 0 0 Z " fill="#F8DFCC" transform="translate(146.9375,191.25)"/>
<path d="M0 0 C3.47064731 1.5532967 6.22929462 3.6229487 9.1875 6 C10.50814453 7.051875 10.50814453 7.051875 11.85546875 8.125 C14 10 14 10 15 12 C14.01 12 13.02 12 12 12 C12 12.66 12 13.32 12 14 C7.67953102 12.58319756 4.99538801 10.46236215 1.6875 7.375 C0.80449219 6.55773437 -0.07851562 5.74046875 -0.98828125 4.8984375 C-1.98408203 3.95871094 -1.98408203 3.95871094 -3 3 C-2.01 2.01 -1.02 1.02 0 0 Z " fill="#F8F5F5" transform="translate(180,166)"/>
<path d="M0 0 C7.05783818 5.25878139 14.03098109 10.62450675 21 16 C20.67 16.99 20.34 17.98 20 19 C16.06703274 17.65905861 13.57312391 15.96926145 10.5625 13.125 C7.95484514 10.7048521 5.52009193 8.58754701 2.4375 6.8125 C1.633125 6.214375 0.82875 5.61625 0 5 C-0.15234375 2.38671875 -0.15234375 2.38671875 0 0 Z " fill="#94746E" transform="translate(158,154)"/>
<path d="M0 0 C0.33 0 0.66 0 1 0 C1.14695312 0.73863281 1.29390625 1.47726563 1.4453125 2.23828125 C3.15890838 9.98885572 5.93636974 16.21106082 10 23 C10.33 23.66 10.66 24.32 11 25 C10.34 25.99 9.68 26.98 9 28 C3.26788388 19.49921614 -0.51062535 12.006631 -3 2 C-2.01 2 -1.02 2 0 2 C0 1.34 0 0.68 0 0 Z " fill="#F1A8C2" transform="translate(120,225)"/>
<path d="M0 0 C8.64390124 0.86439012 14.08092737 4.53729122 19.75 10.90234375 C21.26437583 13.44365569 21.24284761 15.09088798 21 18 C18.8224411 15.8224411 16.65057576 13.64184016 14.5 11.4375 C9.92674762 6.97857893 5.99163738 5.09707308 0 3 C0 2.01 0 1.02 0 0 Z " fill="#F9F6F4" transform="translate(181,194)"/>
<path d="M0 0 C1.32 0.99 2.64 1.98 4 3 C3.44570312 3.53109375 2.89140625 4.0621875 2.3203125 4.609375 C1.23363281 5.66898438 1.23363281 5.66898438 0.125 6.75 C-0.59429687 7.44609375 -1.31359375 8.1421875 -2.0546875 8.859375 C-4.04287905 10.85323642 -4.04287905 10.85323642 -5.03125 13.0625 C-6.20356196 15.40712392 -7.60193591 16.60157741 -9.625 18.25 C-10.25664062 18.77078125 -10.88828125 19.2915625 -11.5390625 19.828125 C-12.02117187 20.21484375 -12.50328125 20.6015625 -13 21 C-13.66 20.67 -14.32 20.34 -15 20 C-14.00419922 18.71416016 -14.00419922 18.71416016 -12.98828125 17.40234375 C-8.5578618 11.66959874 -4.14662576 5.94349693 0 0 Z " fill="#AAA09E" transform="translate(160,160)"/>
<path d="M0 0 C5.66936919 3.58065422 10.80462523 7.7697739 16 12 C15.67 12.99 15.34 13.98 15 15 C11.03065634 13.64649589 8.44859483 11.89844574 5.375 9.0625 C4.24191406 8.02802734 4.24191406 8.02802734 3.0859375 6.97265625 C1.36089875 5.34129938 -0.33462601 3.69189268 -2 2 C-1.34 1.34 -0.68 0.68 0 0 Z " fill="#AF8E86" transform="translate(179,171)"/>
<path d="M0 0 C2.1875 0.3125 2.1875 0.3125 5 1 C15.83418716 2.80128295 26.70232556 2.62640045 37.44921875 0.4375 C40.01797227 -0.00308253 42.39933942 -0.074974 45 0 C37.6168449 4.9221034 28.00675885 4.3120586 19.4375 4.25 C17.8297168 4.26160156 17.8297168 4.26160156 16.18945312 4.2734375 C9.81381055 4.2578396 4.16600397 3.63046485 -2 2 C-1.34 1.34 -0.68 0.68 0 0 Z " fill="#F4CBDD" transform="translate(187,292)"/>
<path d="M0 0 C1.98 0.99 1.98 0.99 4 2 C4 7.28 4 12.56 4 18 C3.01 18 2.02 18 1 18 C0.04380267 14.00204108 -0.1039592 10.29196078 -0.0625 6.1875 C-0.05347656 5.02605469 -0.04445313 3.86460937 -0.03515625 2.66796875 C-0.02355469 1.78753906 -0.01195313 0.90710938 0 0 Z " fill="#F4CCC1" transform="translate(116,209)"/>
<path d="M0 0 C2.04296875 1.21484375 2.04296875 1.21484375 4.1875 2.9375 C4.90292969 3.50339844 5.61835938 4.06929687 6.35546875 4.65234375 C7.16951172 5.31943359 7.16951172 5.31943359 8 6 C7.67 7.32 7.34 8.64 7 10 C3.39426104 10 2.58663434 9.18292538 -0.1875 7 C-0.90292969 6.443125 -1.61835938 5.88625 -2.35546875 5.3125 C-2.89816406 4.879375 -3.44085938 4.44625 -4 4 C-3.67 3.01 -3.34 2.02 -3 1 C-2.01 0.67 -1.02 0.34 0 0 Z " fill="#D1C5C2" transform="translate(195,177)"/>
<path d="M0 0 C0.33 0 0.66 0 1 0 C1.26554688 1.15757812 1.53109375 2.31515625 1.8046875 3.5078125 C2.16130764 5.04690993 2.51808691 6.58597048 2.875 8.125 C3.04902344 8.88554687 3.22304687 9.64609375 3.40234375 10.4296875 C4.39798428 14.70725424 5.52971389 18.85405809 7 23 C6.34 23 5.68 23 5 23 C4.67 23.66 4.34 24.32 4 25 C0.13267571 16.54022812 -0.48550351 9.23805298 0 0 Z " fill="#F6CBCF" transform="translate(130,228)"/>
<path d="M0 0 C-0.33 0.99 -0.66 1.98 -1 3 C-3.765625 4.16796875 -3.765625 4.16796875 -7.25 5.1875 C-8.38953125 5.53167969 -9.5290625 5.87585938 -10.703125 6.23046875 C-13.62909513 6.91342623 -16.0176081 7.16257399 -19 7 C-17.24125628 3.59976214 -15.22869696 2.48858205 -11.75 1.25 C-7.67529522 0.01625142 -4.23316952 -0.27020231 0 0 Z " fill="#F5C8CF" transform="translate(235,268)"/>
<path d="M0 0 C0.66 0.33 1.32 0.66 2 1 C-1.01224972 6.33989723 -5.05525742 9.93984067 -9.66015625 13.94921875 C-11.51785582 15.57741954 -13.28311207 17.22682066 -15 19 C-15.66 18.67 -16.32 18.34 -17 18 C-16.31164062 17.22076172 -16.31164062 17.22076172 -15.609375 16.42578125 C-11.67079331 11.95442991 -11.67079331 11.95442991 -7.9375 7.3125 C-5.54292675 4.45446096 -2.91633741 2.31981385 0 0 Z " fill="#F9D9E9" transform="translate(302,190)"/>
<path d="M0 0 C0.66 0.33 1.32 0.66 2 1 C1.66304813 10.43465232 -3.35827306 15.74896288 -10 22 C-10.66 21.67 -11.32 21.34 -12 21 C-11.34 19.68 -10.68 18.36 -10 17 C-9.34 17 -8.68 17 -8 17 C-7.731875 16.360625 -7.46375 15.72125 -7.1875 15.0625 C-6 13 -6 13 -3 12 C-3 11.34 -3 10.68 -3 10 C-2.34 10 -1.68 10 -1 10 C-0.67 6.7 -0.34 3.4 0 0 Z " fill="#EEB7C8" transform="translate(195,224)"/>
<path d="M0 0 C0.66 0 1.32 0 2 0 C3.66666667 1.66666667 5.33333333 3.33333333 7 5 C9.16620544 6.29519995 9.16620544 6.29519995 11 7 C10.67 7.66 10.34 8.32 10 9 C4.55072464 10.27536232 4.55072464 10.27536232 2 9 C2 8.34 2 7.68 2 7 C1.01 6.67 0.02 6.34 -1 6 C-0.67 4.02 -0.34 2.04 0 0 Z " fill="#AE9994" transform="translate(205,185)"/>
<path d="M0 0 C0.66 0 1.32 0 2 0 C1.61168175 4.94879998 -0.88684273 7.46172355 -4.3125 10.75 C-4.79912109 11.24371094 -5.28574219 11.73742187 -5.78710938 12.24609375 C-8.35948093 14.77345746 -10.3310002 16.61654159 -14 17 C-12.4114658 12.71095765 -9.56872632 10.67654474 -6 8 C-5.34 8 -4.68 8 -4 8 C-3.71125 7.236875 -3.4225 6.47375 -3.125 5.6875 C-2 3 -2 3 0 0 Z " fill="#F5A9D4" transform="translate(193,226)"/>
<path d="M0 0 C3.93673644 1.31224548 6.22719294 2.91910327 9 6 C6.525 7.485 6.525 7.485 4 9 C2.02 7.35 0.04 5.7 -2 4 C-1.34 2.68 -0.68 1.36 0 0 Z " fill="#C6BAB7" transform="translate(162,152)"/>
<path d="M0 0 C0.66 0.33 1.32 0.66 2 1 C1.16855469 1.77923828 1.16855469 1.77923828 0.3203125 2.57421875 C-0.76636719 3.62029297 -0.76636719 3.62029297 -1.875 4.6875 C-2.95394531 5.71423828 -2.95394531 5.71423828 -4.0546875 6.76171875 C-6.72445204 9.83355626 -8.01573505 12.35044225 -7.9765625 16.45703125 C-7.86054688 17.23433594 -7.74453125 18.01164062 -7.625 18.8125 C-7.51414063 19.60269531 -7.40328125 20.39289063 -7.2890625 21.20703125 C-7.19367188 21.79871094 -7.09828125 22.39039063 -7 23 C-9 22 -9 22 -10 19 C-10.34571287 13.64145052 -10.51362025 10.30701837 -7 6 C-4.74352158 3.89896787 -2.41038982 1.92170805 0 0 Z " fill="#F3C4DE" transform="translate(175,260)"/>
<path d="M0 0 C1.45922693 0.11409593 2.91740598 0.24165544 4.375 0.375 C5.59316406 0.47941406 5.59316406 0.47941406 6.8359375 0.5859375 C9 1 9 1 11 3 C10.67 3.66 10.34 4.32 10 5 C5.05 5 0.1 5 -5 5 C-5 4.67 -5 4.34 -5 4 C-3.35 3.67 -1.7 3.34 0 3 C0 2.01 0 1.02 0 0 Z " fill="#F8E8F0" transform="translate(386,194)"/>
<path d="M0 0 C-0.33 0.66 -0.66 1.32 -1 2 C-6.22878737 3.74292912 -11.61364783 4.85188865 -17 6 C-11.97092901 -1.07795177 -8.08970804 -1.37113696 0 0 Z " fill="#F8E0EE" transform="translate(350,167)"/>
<path d="M0 0 C6.8229008 0.02745634 10.87842983 0.88325502 15.8203125 5.72265625 C16.20960938 6.14417969 16.59890625 6.56570312 17 7 C16.67 7.66 16.34 8.32 16 9 C15.21625 8.360625 14.4325 7.72125 13.625 7.0625 C9.86219045 4.10600678 8.10103583 3.8825461 3.375 3.9375 C1.87066406 3.95103516 1.87066406 3.95103516 0.3359375 3.96484375 C-0.82035156 3.98224609 -0.82035156 3.98224609 -2 4 C-1.34 3.67 -0.68 3.34 0 3 C0 2.01 0 1.02 0 0 Z " fill="#F0C7B0" transform="translate(137,190)"/>
<path d="M0 0 C0.66 0.66 1.32 1.32 2 2 C-3.61 7.61 -9.22 13.22 -15 19 C-15 16 -15 16 -13.49609375 14.23828125 C-12.81675781 13.60277344 -12.13742188 12.96726563 -11.4375 12.3125 C-7.37087094 8.40534659 -3.65321063 4.29252249 0 0 Z " fill="#F7D9DC" transform="translate(265,215)"/>
<path d="M0 0 C0.98043964 2.94131891 1.11621202 4.82501665 1.09765625 7.88671875 C1.09282227 9.2934082 1.09282227 9.2934082 1.08789062 10.72851562 C1.07951172 11.70498047 1.07113281 12.68144531 1.0625 13.6875 C1.05798828 14.67556641 1.05347656 15.66363281 1.04882812 16.68164062 C1.03704303 19.12115474 1.02059011 21.56054689 1 24 C-2.91722034 20.08277966 -2.15949425 14.01508035 -2.1875 8.75 C-2.20167969 7.52796875 -2.21585937 6.3059375 -2.23046875 5.046875 C-2 2 -2 2 0 0 Z " fill="#936B6A" transform="translate(112,206)"/>
<path d="M0 0 C0.66 0.33 1.32 0.66 2 1 C0.125 6.75 0.125 6.75 -1 9 C-1.22467831 10.53668865 -1.40796805 12.07968054 -1.5625 13.625 C-1.64628906 14.44226563 -1.73007813 15.25953125 -1.81640625 16.1015625 C-1.87699219 16.72804688 -1.93757812 17.35453125 -2 18 C-3.32 17.34 -4.64 16.68 -6 16 C-5.34 15.67 -4.68 15.34 -4 15 C-3.64127907 12.25283336 -3.55594291 9.5290723 -3.44140625 6.76171875 C-2.9513313 3.69549763 -2.04111104 2.29148733 0 0 Z " fill="#EEAAD6" transform="translate(158,259)"/>
<path d="M0 0 C6.70459519 4.77899344 6.70459519 4.77899344 7.9375 9.875 C7.958125 10.90625 7.97875 11.9375 8 13 C6.66666667 11.66666667 5.33333333 10.33333333 4 9 C3.0925 8.154375 2.185 7.30875 1.25 6.4375 C-1 4 -1 4 -1 1 C-0.67 0.67 -0.34 0.34 0 0 Z " fill="#F1E5E3" transform="translate(194,199)"/>
<path d="M0 0 C0.33 0 0.66 0 1 0 C1.99 4.29 2.98 8.58 4 13 C3.34 13 2.68 13 2 13 C1.67 13.66 1.34 14.32 1 15 C-0.32 10.71 -1.64 6.42 -3 2 C-2.01 2 -1.02 2 0 2 C0 1.34 0 0.68 0 0 Z " fill="#F0AFB6" transform="translate(120,225)"/>
<path d="M0 0 C0.66 0.33 1.32 0.66 2 1 C1.46890625 1.43828125 0.9378125 1.8765625 0.390625 2.328125 C-5.71827396 7.81275692 -8.00182891 13.11248252 -10 21 C-10.33 21 -10.66 21 -11 21 C-10.52162377 14.30273284 -9.28310643 8.31521505 -4.40234375 3.38671875 C-2.98415835 2.19651587 -1.49732691 1.08896503 0 0 Z " fill="#CEA18C" transform="translate(131,195)"/>
<path d="M0 0 C0.33 0.66 0.66 1.32 1 2 C0.24172908 3.17487036 -0.53207755 4.33972592 -1.3125 5.5 C-1.74175781 6.1496875 -2.17101562 6.799375 -2.61328125 7.46875 C-3.29970703 8.22671875 -3.29970703 8.22671875 -4 9 C-4.99 9 -5.98 9 -7 9 C-7.66 6.69 -8.32 4.38 -9 2 C-8.01 2.99 -7.02 3.98 -6 5 C-5.67 4.01 -5.34 3.02 -5 2 C-2.4375 0.8125 -2.4375 0.8125 0 0 Z " fill="#DACAC7" transform="translate(207,206)"/>
<path d="M0 0 C0 3 0 3 -2.51953125 5.62890625 C-3.60963132 6.61518726 -4.70767034 7.59274755 -5.8125 8.5625 C-6.35970703 9.05685547 -6.90691406 9.55121094 -7.47070312 10.06054688 C-9.8968145 12.23375452 -12.2860722 14.1907148 -15 16 C-13.62436869 10.32552083 -9.33629883 7.49888739 -5 4 C-4.01 3.195625 -3.02 2.39125 -2 1.5625 C-1.34 1.046875 -0.68 0.53125 0 0 Z " fill="#8B5D5A" transform="translate(130,183)"/>
<path d="M0 0 C-1.78809697 1.17213045 -3.58059125 2.33755526 -5.375 3.5 C-6.37273437 4.1496875 -7.37046875 4.799375 -8.3984375 5.46875 C-11 7 -11 7 -13 7 C-12.67 5.68 -12.34 4.36 -12 3 C-11.34 3 -10.68 3 -10 3 C-10 2.34 -10 1.68 -10 1 C-8.71073008 0.63720544 -7.41846728 0.28503302 -6.125 -0.0625 C-5.40570313 -0.25972656 -4.68640625 -0.45695313 -3.9453125 -0.66015625 C-2 -1 -2 -1 0 0 Z " fill="#F3BFE1" transform="translate(177,249)"/>
<path d="M0 0 C0.99 0.99 1.98 1.98 3 3 C2.51789063 3.47050781 2.03578125 3.94101563 1.5390625 4.42578125 C0.90742188 5.04839844 0.27578125 5.67101562 -0.375 6.3125 C-1.00148437 6.92738281 -1.62796875 7.54226562 -2.2734375 8.17578125 C-4.18086607 10.08812528 -4.18086607 10.08812528 -6 13 C-6.99 12.34 -7.98 11.68 -9 11 C-8.43410156 10.45730469 -7.86820313 9.91460937 -7.28515625 9.35546875 C-6.55167969 8.64003906 -5.81820312 7.92460937 -5.0625 7.1875 C-3.96615234 6.12595703 -3.96615234 6.12595703 -2.84765625 5.04296875 C-0.79165354 3.04463837 -0.79165354 3.04463837 0 0 Z " fill="#E5E2DF" transform="translate(186,181)"/>
<path d="M0 0 C0.66 0.33 1.32 0.66 2 1 C-2.29 4.63 -6.58 8.26 -11 12 C-11 10.33333333 -11 8.66666667 -11 7 C-8.6640625 5.23828125 -8.6640625 5.23828125 -5.625 3.3125 C-4.62726563 2.66925781 -3.62953125 2.02601562 -2.6015625 1.36328125 C-1.74304688 0.91339844 -0.88453125 0.46351562 0 0 Z " fill="#E9BFB7" transform="translate(271,63)"/>
<path d="M0 0 C0.65226563 0.33773438 1.30453125 0.67546875 1.9765625 1.0234375 C6.57761806 3.3714688 11.01772085 5.5577613 16 7 C12.67720067 8.12021481 10.73090999 7.88681157 7.4375 6.75 C6.29087891 6.37101562 6.29087891 6.37101562 5.12109375 5.984375 C2.86296405 4.93640321 1.55821503 3.93158924 0 2 C0 1.34 0 0.68 0 0 Z " fill="#F3C8E0" transform="translate(169,285)"/>
<path d="M0 0 C1.73662334 3.22515763 2.8905928 6.51329166 4 10 C3.34 10 2.68 10 2 10 C1.67 10.66 1.34 11.32 1 12 C0.44191911 10.56879256 -0.09596462 9.12969645 -0.625 7.6875 C-0.92664063 6.88699219 -1.22828125 6.08648437 -1.5390625 5.26171875 C-1.69117188 4.51535156 -1.84328125 3.76898438 -2 3 C-1.34 2.01 -0.68 1.02 0 0 Z " fill="#F4AFCA" transform="translate(133,241)"/>
<path d="M0 0 C1.32 1.32 2.64 2.64 4 4 C2.35 4.66 0.7 5.32 -1 6 C-1.33 5.67 -1.66 5.34 -2 5 C-3.32594105 4.63837971 -4.65938457 4.30271961 -6 4 C-4.02 2.68 -2.04 1.36 0 0 Z " fill="#EEB1D6" transform="translate(177,244)"/>
<path d="M0 0 C1.65 1.65 3.3 3.3 5 5 C4.01 5 3.02 5 2 5 C2 5.66 2 6.32 2 7 C-0.475 6.01 -0.475 6.01 -3 5 C-2.01 3.35 -1.02 1.7 0 0 Z " fill="#EBE3E1" transform="translate(190,173)"/>
<path d="M0 0 C1.32 0.99 2.64 1.98 4 3 C1.69 4.98 -0.62 6.96 -3 9 C-3.26218749 5.85375007 -3.24754367 4.38162983 -1.5 1.6875 C-1.005 1.130625 -0.51 0.57375 0 0 Z " fill="#B6ABA9" transform="translate(160,160)"/>
<path d="M0 0 C2.0625 0.4375 2.0625 0.4375 4 1 C3.67 2.65 3.34 4.3 3 6 C1.68 5.67 0.36 5.34 -1 5 C-1 1 -1 1 0 0 Z " fill="#D1BFBA" transform="translate(213,193)"/>
<path d="M0 0 C2.6875 0.875 2.6875 0.875 5 2 C3.68 3.32 2.36 4.64 1 6 C-0.32 4.68 -1.64 3.36 -3 2 C-2.01 1.34 -1.02 0.68 0 0 Z " fill="#EAE1DE" transform="translate(176,163)"/>
<path d="M0 0 C2.31 1.65 4.62 3.3 7 5 C6.67 5.99 6.34 6.98 6 8 C4 7 2 6 0 5 C0 3.35 0 1.7 0 0 Z " fill="#8E6C68" transform="translate(158,154)"/>
<path d="M0 0 C-0.99 0.33 -1.98 0.66 -3 1 C-3.33 1.66 -3.66 2.32 -4 3 C-6.64860427 3.59355614 -9.29197322 3.74209269 -12 4 C-12 3.34 -12 2.68 -12 2 C-10.75579353 1.4654744 -9.50429064 0.94791389 -8.25 0.4375 C-7.55390625 0.14746094 -6.8578125 -0.14257812 -6.140625 -0.44140625 C-3.69987216 -1.07831803 -2.3596345 -0.80248831 0 0 Z " fill="#F5BFCD" transform="translate(237,285)"/>
<path d="M0 0 C0.99 0.33 1.98 0.66 3 1 C3.6875 3.3125 3.6875 3.3125 4 6 C2.5625 7.8125 2.5625 7.8125 1 9 C-0.61949011 6.42786866 -1.04408751 5.32330841 -0.625 2.25 C-0.41875 1.5075 -0.2125 0.765 0 0 Z " fill="#BCA9A4" transform="translate(202,182)"/>
<path d="M0 0 C3 3 3 3 3.1875 6.1875 C3.0946875 7.5796875 3.0946875 7.5796875 3 9 C2.01 9 1.02 9 0 9 C0 6.03 0 3.06 0 0 Z " fill="#EEBDAA" transform="translate(154,199)"/>
<path d="M0 0 C0.99 0.495 0.99 0.495 2 1 C1.01 1.495 1.01 1.495 0 2 C0 1.34 0 0.68 0 0 Z M-5 2 C-4.34 2.99 -3.68 3.98 -3 5 C-4.32 6.32 -5.64 7.64 -7 9 C-7.66 8.67 -8.32 8.34 -9 8 C-7.68 6.02 -6.36 4.04 -5 2 Z M-2 2 C-1.34 2.33 -0.68 2.66 0 3 C-0.99 3 -1.98 3 -3 3 C-2.67 2.67 -2.34 2.34 -2 2 Z " fill="#AFA6A5" transform="translate(154,172)"/>
<path d="M0 0 C0.33 0.99 0.66 1.98 1 3 C-1.31 5.31 -3.62 7.62 -6 10 C-6 6.41087588 -5.33563446 5.89142971 -3 3.3125 C-2.443125 2.68988281 -1.88625 2.06726563 -1.3125 1.42578125 C-0.879375 0.95527344 -0.44625 0.48476562 0 0 Z " fill="#8E6864" transform="translate(166,138)"/>
<path d="M0 0 C2.875 -0.125 2.875 -0.125 6 0 C6.66 0.66 7.32 1.32 8 2 C4.7 2.66 1.4 3.32 -2 4 C-1.34 3.67 -0.68 3.34 0 3 C0 2.01 0 1.02 0 0 Z " fill="#F5D2BB" transform="translate(137,190)"/>
<path d="M0 0 C0.33 1.32 0.66 2.64 1 4 C-3.75 8 -3.75 8 -6 8 C-4.55746343 4.63408134 -2.66735273 2.48952921 0 0 Z " fill="#FCF2EB" transform="translate(216,128)"/>
<path d="M0 0 C0.99 0.99 1.98 1.98 3 3 C3.66 2.01 4.32 1.02 5 0 C5 2.31 5 4.62 5 7 C4.01 7 3.02 7 2 7 C1.34 4.69 0.68 2.38 0 0 Z " fill="#DCC0BA" transform="translate(198,208)"/>
<path d="M0 0 C2.22189824 2.22189824 2.92598892 4.08482708 4 7 C-0.75 6.25 -0.75 6.25 -3 4 C-2.01 4 -1.02 4 0 4 C0 2.68 0 1.36 0 0 Z " fill="#BA9896" transform="translate(161,280)"/>
<path d="M0 0 C0.99 0.33 1.98 0.66 3 1 C0.03839944 4.12613393 -2.09567131 6.04783565 -6 8 C-4.02 5.36 -2.04 2.72 0 0 Z " fill="#C5B8B6" transform="translate(208,200)"/>
<path d="M0 0 C1.65 0.99 3.3 1.98 5 3 C4.67 3.99 4.34 4.98 4 6 C1 5 1 5 -0.1875 2.9375 C-0.5896875 1.9784375 -0.5896875 1.9784375 -1 1 C-0.67 0.67 -0.34 0.34 0 0 Z " fill="#9D7974" transform="translate(174,167)"/>
<path d="M0 0 C0.99 0.33 1.98 0.66 3 1 C2.67 2.32 2.34 3.64 2 5 C0.68 4.67 -0.64 4.34 -2 4 C-1.34 2.68 -0.68 1.36 0 0 Z " fill="#F0EAE8" transform="translate(162,152)"/>
</svg>
